
v -1.0 -1.0  1.0
v  1.0 -1.0  1.0
v  1.0  1.0  1.0
v -1.0  1.0  1.0
v -1.0 -1.0 -1.0
v  1.0 -1.0 -1.0
v  1.0  1.0 -1.0
v -1.0  1.0 -1.0

vt 0.0 0.0
vt 0.5 0.0
vt 0.5 0.5
vt 0.0 0.5
vt 1.0 0.0
vt 1.0 0.5
vt 0.5 1.0
vt 0.0 1.0

vn  0.0  0.0  1.0
vn  0.0  0.0 -1.0
vn  0.0  1.0  0.0
vn  0.0 -1.0  0.0
vn  1.0  0.0  0.0
vn -1.0  0.0  0.0

f 1/1/1 2/2/1 3/3/1
f 1/1/1 3/3/1 4/4/1
f 6/5/2 5/6/2 8/7/2
f 6/5/2 8/7/2 7/8/2
f 4/1/3 3/2/3 7/3/3
f 4/1/3 7/3/3 8/4/3
f 1/5/4 5/6/4 6/7/4
f 1/5/4 6/7/4 2/8/4
f 2/1/5 6/2/5 7/3/5
f 2/1/5 7/3/5 3/4/5
f 5/5/6 1/6/6 4/7/6
f 5/5/6 4/7/6 8/8/6